<mxfile host="app.diagrams.net" agent="Mozilla/5.0 (X11; Linux x86_64) AppleWebKit/537.36 (KHTML, like Gecko) Chrome/127.0.0.0 Safari/537.36" version="26.1.0" pages="3">
  <diagram name="Página-1" id="dRApIitfJ-gJiGL6w8Ln">
    <mxGraphModel dx="1434" dy="787" grid="1" gridSize="10" guides="1" tooltips="1" connect="1" arrows="1" fold="1" page="1" pageScale="1" pageWidth="827" pageHeight="1169" math="0" shadow="0">
      <root>
        <mxCell id="0" />
        <mxCell id="1" parent="0" />
        <mxCell id="0ImGcZS4g0DRsmRQuO0D-2" value="Actor" style="shape=umlActor;verticalLabelPosition=bottom;verticalAlign=top;html=1;outlineConnect=0;" vertex="1" parent="1">
          <mxGeometry x="120" y="90" width="190" height="450" as="geometry" />
        </mxCell>
        <mxCell id="0ImGcZS4g0DRsmRQuO0D-3" value="" style="ellipse;whiteSpace=wrap;html=1;aspect=fixed;" vertex="1" parent="1">
          <mxGeometry x="230" y="400" width="80" height="80" as="geometry" />
        </mxCell>
        <mxCell id="0ImGcZS4g0DRsmRQuO0D-4" value="" style="ellipse;whiteSpace=wrap;html=1;aspect=fixed;" vertex="1" parent="1">
          <mxGeometry x="170" y="400" width="80" height="80" as="geometry" />
        </mxCell>
        <mxCell id="0ImGcZS4g0DRsmRQuO0D-5" value="" style="rounded=1;whiteSpace=wrap;html=1;" vertex="1" parent="1">
          <mxGeometry x="210" y="370" width="370" height="60" as="geometry" />
        </mxCell>
        <mxCell id="0ImGcZS4g0DRsmRQuO0D-6" value="" style="shape=xor;whiteSpace=wrap;html=1;" vertex="1" parent="1">
          <mxGeometry x="540" y="360" width="60" height="80" as="geometry" />
        </mxCell>
        <mxCell id="0ImGcZS4g0DRsmRQuO0D-8" value="" style="endArrow=none;html=1;rounded=0;" edge="1" parent="1">
          <mxGeometry width="50" height="50" relative="1" as="geometry">
            <mxPoint x="590" y="400" as="sourcePoint" />
            <mxPoint x="600" y="400" as="targetPoint" />
          </mxGeometry>
        </mxCell>
        <mxCell id="0ImGcZS4g0DRsmRQuO0D-11" value="" style="ellipse;whiteSpace=wrap;html=1;aspect=fixed;" vertex="1" parent="1">
          <mxGeometry x="190" y="120" width="20" height="20" as="geometry" />
        </mxCell>
        <mxCell id="0ImGcZS4g0DRsmRQuO0D-12" value="" style="ellipse;whiteSpace=wrap;html=1;aspect=fixed;" vertex="1" parent="1">
          <mxGeometry x="220" y="120" width="20" height="20" as="geometry" />
        </mxCell>
        <mxCell id="0ImGcZS4g0DRsmRQuO0D-13" value="" style="ellipse;whiteSpace=wrap;html=1;aspect=fixed;strokeColor=#666666;fillColor=light-dark(#000000, #1a1a1a);fontColor=#333333;fillStyle=solid;" vertex="1" parent="1">
          <mxGeometry x="195" y="125" width="10" height="10" as="geometry" />
        </mxCell>
        <mxCell id="0ImGcZS4g0DRsmRQuO0D-14" value="" style="ellipse;whiteSpace=wrap;html=1;aspect=fixed;strokeColor=#666666;fillColor=light-dark(#000000, #1a1a1a);fontColor=#333333;fillStyle=solid;" vertex="1" parent="1">
          <mxGeometry x="225" y="125" width="10" height="10" as="geometry" />
        </mxCell>
        <mxCell id="0ImGcZS4g0DRsmRQuO0D-16" value="" style="endArrow=none;html=1;rounded=0;" edge="1" parent="1">
          <mxGeometry width="50" height="50" relative="1" as="geometry">
            <mxPoint x="195" y="170" as="sourcePoint" />
            <mxPoint x="235" y="170" as="targetPoint" />
            <Array as="points">
              <mxPoint x="215" y="180" />
            </Array>
          </mxGeometry>
        </mxCell>
        <mxCell id="0ImGcZS4g0DRsmRQuO0D-17" value="" style="verticalLabelPosition=bottom;verticalAlign=top;html=1;shape=mxgraph.basic.smiley" vertex="1" parent="1">
          <mxGeometry x="160" y="90" width="110" height="120" as="geometry" />
        </mxCell>
      </root>
    </mxGraphModel>
  </diagram>
  <diagram id="Dh4PLKR_mAyDeZtLlV16" name="Página-2">
    <mxGraphModel dx="2261" dy="1956" grid="1" gridSize="10" guides="1" tooltips="1" connect="1" arrows="1" fold="1" page="1" pageScale="1" pageWidth="827" pageHeight="1169" math="0" shadow="0">
      <root>
        <mxCell id="0" />
        <mxCell id="1" parent="0" />
        <mxCell id="pJRj6KPSanw1Twy7FeWH-87" value="USUARIO" style="shape=table;startSize=30;container=1;collapsible=1;childLayout=tableLayout;fixedRows=1;rowLines=0;fontStyle=1;align=center;resizeLast=1;labelBackgroundColor=none;rounded=1;direction=east;verticalAlign=middle;horizontal=1;textShadow=0;labelBorderColor=none;" vertex="1" parent="1">
          <mxGeometry x="-420" y="10" width="180" height="120" as="geometry" />
        </mxCell>
        <mxCell id="pJRj6KPSanw1Twy7FeWH-88" value="" style="shape=tableRow;horizontal=1;startSize=0;swimlaneHead=0;swimlaneBody=0;fillColor=none;collapsible=0;dropTarget=0;points=[[0,0.5],[1,0.5]];portConstraint=eastwest;top=0;left=0;right=0;bottom=1;labelBackgroundColor=none;rounded=1;align=center;verticalAlign=middle;fontStyle=0;textShadow=0;labelBorderColor=none;" vertex="1" parent="pJRj6KPSanw1Twy7FeWH-87">
          <mxGeometry y="30" width="180" height="30" as="geometry" />
        </mxCell>
        <mxCell id="pJRj6KPSanw1Twy7FeWH-89" value="PK" style="shape=partialRectangle;connectable=0;fillColor=none;top=0;left=0;bottom=0;right=0;fontStyle=1;overflow=hidden;labelBackgroundColor=none;rounded=1;align=center;verticalAlign=middle;horizontal=1;textShadow=0;labelBorderColor=none;" vertex="1" parent="pJRj6KPSanw1Twy7FeWH-88">
          <mxGeometry width="30" height="30" as="geometry">
            <mxRectangle width="30" height="30" as="alternateBounds" />
          </mxGeometry>
        </mxCell>
        <mxCell id="pJRj6KPSanw1Twy7FeWH-90" value="ID" style="shape=partialRectangle;connectable=0;fillColor=none;top=0;left=0;bottom=0;right=0;align=center;spacingLeft=6;fontStyle=1;overflow=hidden;labelBackgroundColor=none;rounded=1;verticalAlign=middle;horizontal=1;textShadow=0;labelBorderColor=none;" vertex="1" parent="pJRj6KPSanw1Twy7FeWH-88">
          <mxGeometry x="30" width="150" height="30" as="geometry">
            <mxRectangle width="150" height="30" as="alternateBounds" />
          </mxGeometry>
        </mxCell>
        <mxCell id="pJRj6KPSanw1Twy7FeWH-91" value="" style="shape=tableRow;horizontal=1;startSize=0;swimlaneHead=0;swimlaneBody=0;fillColor=none;collapsible=0;dropTarget=0;points=[[0,0.5],[1,0.5]];portConstraint=eastwest;top=0;left=0;right=0;bottom=0;labelBackgroundColor=none;rounded=1;align=center;verticalAlign=middle;fontStyle=0;textShadow=0;labelBorderColor=none;" vertex="1" parent="pJRj6KPSanw1Twy7FeWH-87">
          <mxGeometry y="60" width="180" height="30" as="geometry" />
        </mxCell>
        <mxCell id="pJRj6KPSanw1Twy7FeWH-92" value="" style="shape=partialRectangle;connectable=0;fillColor=none;top=0;left=0;bottom=0;right=0;editable=1;overflow=hidden;labelBackgroundColor=none;rounded=1;align=center;verticalAlign=middle;horizontal=1;fontStyle=0;textShadow=0;labelBorderColor=none;" vertex="1" parent="pJRj6KPSanw1Twy7FeWH-91">
          <mxGeometry width="30" height="30" as="geometry">
            <mxRectangle width="30" height="30" as="alternateBounds" />
          </mxGeometry>
        </mxCell>
        <mxCell id="pJRj6KPSanw1Twy7FeWH-93" value="nome" style="shape=partialRectangle;connectable=0;fillColor=none;top=0;left=0;bottom=0;right=0;align=center;spacingLeft=6;overflow=hidden;labelBackgroundColor=none;rounded=1;verticalAlign=middle;horizontal=1;fontStyle=0;textShadow=0;labelBorderColor=none;" vertex="1" parent="pJRj6KPSanw1Twy7FeWH-91">
          <mxGeometry x="30" width="150" height="30" as="geometry">
            <mxRectangle width="150" height="30" as="alternateBounds" />
          </mxGeometry>
        </mxCell>
        <mxCell id="pJRj6KPSanw1Twy7FeWH-94" value="" style="shape=tableRow;horizontal=1;startSize=0;swimlaneHead=0;swimlaneBody=0;fillColor=none;collapsible=0;dropTarget=0;points=[[0,0.5],[1,0.5]];portConstraint=eastwest;top=0;left=0;right=0;bottom=0;labelBackgroundColor=none;rounded=1;align=center;verticalAlign=middle;fontStyle=0;textShadow=0;labelBorderColor=none;" vertex="1" parent="pJRj6KPSanw1Twy7FeWH-87">
          <mxGeometry y="90" width="180" height="30" as="geometry" />
        </mxCell>
        <mxCell id="pJRj6KPSanw1Twy7FeWH-95" value="" style="shape=partialRectangle;connectable=0;fillColor=none;top=0;left=0;bottom=0;right=0;editable=1;overflow=hidden;labelBackgroundColor=none;rounded=1;align=center;verticalAlign=middle;horizontal=1;fontStyle=0;textShadow=0;labelBorderColor=none;" vertex="1" parent="pJRj6KPSanw1Twy7FeWH-94">
          <mxGeometry width="30" height="30" as="geometry">
            <mxRectangle width="30" height="30" as="alternateBounds" />
          </mxGeometry>
        </mxCell>
        <mxCell id="pJRj6KPSanw1Twy7FeWH-96" value="email" style="shape=partialRectangle;connectable=0;fillColor=none;top=0;left=0;bottom=0;right=0;align=center;spacingLeft=6;overflow=hidden;labelBackgroundColor=none;rounded=1;verticalAlign=middle;horizontal=1;fontStyle=0;textShadow=0;labelBorderColor=none;" vertex="1" parent="pJRj6KPSanw1Twy7FeWH-94">
          <mxGeometry x="30" width="150" height="30" as="geometry">
            <mxRectangle width="150" height="30" as="alternateBounds" />
          </mxGeometry>
        </mxCell>
        <mxCell id="pJRj6KPSanw1Twy7FeWH-100" value="PERFIL DE USUARIO" style="shape=table;startSize=30;container=1;collapsible=1;childLayout=tableLayout;fixedRows=1;rowLines=0;fontStyle=1;align=center;resizeLast=1;labelBackgroundColor=none;rounded=1;direction=east;verticalAlign=middle;horizontal=1;textShadow=0;labelBorderColor=none;" vertex="1" parent="1">
          <mxGeometry x="-660" y="70" width="180" height="150" as="geometry" />
        </mxCell>
        <mxCell id="pJRj6KPSanw1Twy7FeWH-101" value="" style="shape=tableRow;horizontal=1;startSize=0;swimlaneHead=0;swimlaneBody=0;fillColor=none;collapsible=0;dropTarget=0;points=[[0,0.5],[1,0.5]];portConstraint=eastwest;top=0;left=0;right=0;bottom=1;labelBackgroundColor=none;rounded=1;align=center;verticalAlign=middle;fontStyle=0;textShadow=0;labelBorderColor=none;" vertex="1" parent="pJRj6KPSanw1Twy7FeWH-100">
          <mxGeometry y="30" width="180" height="30" as="geometry" />
        </mxCell>
        <mxCell id="pJRj6KPSanw1Twy7FeWH-102" value="PK" style="shape=partialRectangle;connectable=0;fillColor=none;top=0;left=0;bottom=0;right=0;fontStyle=1;overflow=hidden;labelBackgroundColor=none;rounded=1;align=center;verticalAlign=middle;horizontal=1;textShadow=0;labelBorderColor=none;" vertex="1" parent="pJRj6KPSanw1Twy7FeWH-101">
          <mxGeometry width="30" height="30" as="geometry">
            <mxRectangle width="30" height="30" as="alternateBounds" />
          </mxGeometry>
        </mxCell>
        <mxCell id="pJRj6KPSanw1Twy7FeWH-103" value="ID" style="shape=partialRectangle;connectable=0;fillColor=none;top=0;left=0;bottom=0;right=0;align=center;spacingLeft=6;fontStyle=1;overflow=hidden;labelBackgroundColor=none;rounded=1;verticalAlign=middle;horizontal=1;textShadow=0;labelBorderColor=none;" vertex="1" parent="pJRj6KPSanw1Twy7FeWH-101">
          <mxGeometry x="30" width="150" height="30" as="geometry">
            <mxRectangle width="150" height="30" as="alternateBounds" />
          </mxGeometry>
        </mxCell>
        <mxCell id="pJRj6KPSanw1Twy7FeWH-104" value="" style="shape=tableRow;horizontal=1;startSize=0;swimlaneHead=0;swimlaneBody=0;fillColor=none;collapsible=0;dropTarget=0;points=[[0,0.5],[1,0.5]];portConstraint=eastwest;top=0;left=0;right=0;bottom=0;labelBackgroundColor=none;rounded=1;align=center;verticalAlign=middle;fontStyle=0;textShadow=0;labelBorderColor=none;" vertex="1" parent="pJRj6KPSanw1Twy7FeWH-100">
          <mxGeometry y="60" width="180" height="30" as="geometry" />
        </mxCell>
        <mxCell id="pJRj6KPSanw1Twy7FeWH-105" value="FK" style="shape=partialRectangle;connectable=0;fillColor=none;top=0;left=0;bottom=0;right=0;editable=1;overflow=hidden;labelBackgroundColor=none;rounded=1;align=center;verticalAlign=middle;horizontal=1;fontStyle=0;textShadow=0;labelBorderColor=none;" vertex="1" parent="pJRj6KPSanw1Twy7FeWH-104">
          <mxGeometry width="30" height="30" as="geometry">
            <mxRectangle width="30" height="30" as="alternateBounds" />
          </mxGeometry>
        </mxCell>
        <mxCell id="pJRj6KPSanw1Twy7FeWH-106" value="usuario_id" style="shape=partialRectangle;connectable=0;fillColor=none;top=0;left=0;bottom=0;right=0;align=center;spacingLeft=6;overflow=hidden;labelBackgroundColor=none;rounded=1;verticalAlign=middle;horizontal=1;fontStyle=0;textShadow=0;labelBorderColor=none;" vertex="1" parent="pJRj6KPSanw1Twy7FeWH-104">
          <mxGeometry x="30" width="150" height="30" as="geometry">
            <mxRectangle width="150" height="30" as="alternateBounds" />
          </mxGeometry>
        </mxCell>
        <mxCell id="pJRj6KPSanw1Twy7FeWH-107" value="" style="shape=tableRow;horizontal=1;startSize=0;swimlaneHead=0;swimlaneBody=0;fillColor=none;collapsible=0;dropTarget=0;points=[[0,0.5],[1,0.5]];portConstraint=eastwest;top=0;left=0;right=0;bottom=0;labelBackgroundColor=none;rounded=1;align=center;verticalAlign=middle;fontStyle=0;textShadow=0;labelBorderColor=none;" vertex="1" parent="pJRj6KPSanw1Twy7FeWH-100">
          <mxGeometry y="90" width="180" height="30" as="geometry" />
        </mxCell>
        <mxCell id="pJRj6KPSanw1Twy7FeWH-108" value="" style="shape=partialRectangle;connectable=0;fillColor=none;top=0;left=0;bottom=0;right=0;editable=1;overflow=hidden;labelBackgroundColor=none;rounded=1;align=center;verticalAlign=middle;horizontal=1;fontStyle=0;textShadow=0;labelBorderColor=none;" vertex="1" parent="pJRj6KPSanw1Twy7FeWH-107">
          <mxGeometry width="30" height="30" as="geometry">
            <mxRectangle width="30" height="30" as="alternateBounds" />
          </mxGeometry>
        </mxCell>
        <mxCell id="pJRj6KPSanw1Twy7FeWH-109" value="endereco" style="shape=partialRectangle;connectable=0;fillColor=none;top=0;left=0;bottom=0;right=0;align=center;spacingLeft=6;overflow=hidden;labelBackgroundColor=none;rounded=1;verticalAlign=middle;horizontal=1;fontStyle=0;textShadow=0;labelBorderColor=none;" vertex="1" parent="pJRj6KPSanw1Twy7FeWH-107">
          <mxGeometry x="30" width="150" height="30" as="geometry">
            <mxRectangle width="150" height="30" as="alternateBounds" />
          </mxGeometry>
        </mxCell>
        <mxCell id="pJRj6KPSanw1Twy7FeWH-110" value="" style="shape=tableRow;horizontal=1;startSize=0;swimlaneHead=0;swimlaneBody=0;fillColor=none;collapsible=0;dropTarget=0;points=[[0,0.5],[1,0.5]];portConstraint=eastwest;top=0;left=0;right=0;bottom=0;labelBackgroundColor=none;rounded=1;align=center;verticalAlign=middle;fontStyle=0;textShadow=0;labelBorderColor=none;" vertex="1" parent="pJRj6KPSanw1Twy7FeWH-100">
          <mxGeometry y="120" width="180" height="30" as="geometry" />
        </mxCell>
        <mxCell id="pJRj6KPSanw1Twy7FeWH-111" value="" style="shape=partialRectangle;connectable=0;fillColor=none;top=0;left=0;bottom=0;right=0;editable=1;overflow=hidden;labelBackgroundColor=none;rounded=1;align=center;verticalAlign=middle;horizontal=1;fontStyle=0;textShadow=0;labelBorderColor=none;" vertex="1" parent="pJRj6KPSanw1Twy7FeWH-110">
          <mxGeometry width="30" height="30" as="geometry">
            <mxRectangle width="30" height="30" as="alternateBounds" />
          </mxGeometry>
        </mxCell>
        <mxCell id="pJRj6KPSanw1Twy7FeWH-112" value="data_nascimento" style="shape=partialRectangle;connectable=0;fillColor=none;top=0;left=0;bottom=0;right=0;align=center;spacingLeft=6;overflow=hidden;labelBackgroundColor=none;rounded=1;verticalAlign=middle;horizontal=1;fontStyle=0;textShadow=0;labelBorderColor=none;" vertex="1" parent="pJRj6KPSanw1Twy7FeWH-110">
          <mxGeometry x="30" width="150" height="30" as="geometry">
            <mxRectangle width="150" height="30" as="alternateBounds" />
          </mxGeometry>
        </mxCell>
        <mxCell id="pJRj6KPSanw1Twy7FeWH-115" value="CATEGORIA" style="shape=table;startSize=30;container=1;collapsible=1;childLayout=tableLayout;fixedRows=1;rowLines=0;fontStyle=1;align=center;resizeLast=1;labelBackgroundColor=none;rounded=1;direction=east;verticalAlign=middle;horizontal=1;textShadow=0;labelBorderColor=none;" vertex="1" parent="1">
          <mxGeometry x="-413" y="260" width="180" height="120" as="geometry" />
        </mxCell>
        <mxCell id="pJRj6KPSanw1Twy7FeWH-116" value="" style="shape=tableRow;horizontal=1;startSize=0;swimlaneHead=0;swimlaneBody=0;fillColor=none;collapsible=0;dropTarget=0;points=[[0,0.5],[1,0.5]];portConstraint=eastwest;top=0;left=0;right=0;bottom=1;labelBackgroundColor=none;rounded=1;align=center;verticalAlign=middle;fontStyle=0;textShadow=0;labelBorderColor=none;" vertex="1" parent="pJRj6KPSanw1Twy7FeWH-115">
          <mxGeometry y="30" width="180" height="30" as="geometry" />
        </mxCell>
        <mxCell id="pJRj6KPSanw1Twy7FeWH-117" value="PK" style="shape=partialRectangle;connectable=0;fillColor=none;top=0;left=0;bottom=0;right=0;fontStyle=1;overflow=hidden;labelBackgroundColor=none;rounded=1;align=center;verticalAlign=middle;horizontal=1;textShadow=0;labelBorderColor=none;" vertex="1" parent="pJRj6KPSanw1Twy7FeWH-116">
          <mxGeometry width="30" height="30" as="geometry">
            <mxRectangle width="30" height="30" as="alternateBounds" />
          </mxGeometry>
        </mxCell>
        <mxCell id="pJRj6KPSanw1Twy7FeWH-118" value="ID" style="shape=partialRectangle;connectable=0;fillColor=none;top=0;left=0;bottom=0;right=0;align=center;spacingLeft=6;fontStyle=1;overflow=hidden;labelBackgroundColor=none;rounded=1;verticalAlign=middle;horizontal=1;textShadow=0;labelBorderColor=none;" vertex="1" parent="pJRj6KPSanw1Twy7FeWH-116">
          <mxGeometry x="30" width="150" height="30" as="geometry">
            <mxRectangle width="150" height="30" as="alternateBounds" />
          </mxGeometry>
        </mxCell>
        <mxCell id="pJRj6KPSanw1Twy7FeWH-119" value="" style="shape=tableRow;horizontal=1;startSize=0;swimlaneHead=0;swimlaneBody=0;fillColor=none;collapsible=0;dropTarget=0;points=[[0,0.5],[1,0.5]];portConstraint=eastwest;top=0;left=0;right=0;bottom=0;labelBackgroundColor=none;rounded=1;align=center;verticalAlign=middle;fontStyle=0;textShadow=0;labelBorderColor=none;" vertex="1" parent="pJRj6KPSanw1Twy7FeWH-115">
          <mxGeometry y="60" width="180" height="30" as="geometry" />
        </mxCell>
        <mxCell id="pJRj6KPSanw1Twy7FeWH-120" value="" style="shape=partialRectangle;connectable=0;fillColor=none;top=0;left=0;bottom=0;right=0;editable=1;overflow=hidden;labelBackgroundColor=none;rounded=1;align=center;verticalAlign=middle;horizontal=1;fontStyle=0;textShadow=0;labelBorderColor=none;" vertex="1" parent="pJRj6KPSanw1Twy7FeWH-119">
          <mxGeometry width="30" height="30" as="geometry">
            <mxRectangle width="30" height="30" as="alternateBounds" />
          </mxGeometry>
        </mxCell>
        <mxCell id="pJRj6KPSanw1Twy7FeWH-121" value="nome" style="shape=partialRectangle;connectable=0;fillColor=none;top=0;left=0;bottom=0;right=0;align=center;spacingLeft=6;overflow=hidden;labelBackgroundColor=none;rounded=1;verticalAlign=middle;horizontal=1;fontStyle=0;textShadow=0;labelBorderColor=none;" vertex="1" parent="pJRj6KPSanw1Twy7FeWH-119">
          <mxGeometry x="30" width="150" height="30" as="geometry">
            <mxRectangle width="150" height="30" as="alternateBounds" />
          </mxGeometry>
        </mxCell>
        <mxCell id="pJRj6KPSanw1Twy7FeWH-122" value="" style="shape=tableRow;horizontal=1;startSize=0;swimlaneHead=0;swimlaneBody=0;fillColor=none;collapsible=0;dropTarget=0;points=[[0,0.5],[1,0.5]];portConstraint=eastwest;top=0;left=0;right=0;bottom=0;labelBackgroundColor=none;rounded=1;align=center;verticalAlign=middle;fontStyle=0;textShadow=0;labelBorderColor=none;" vertex="1" parent="pJRj6KPSanw1Twy7FeWH-115">
          <mxGeometry y="90" width="180" height="30" as="geometry" />
        </mxCell>
        <mxCell id="pJRj6KPSanw1Twy7FeWH-123" value="" style="shape=partialRectangle;connectable=0;fillColor=none;top=0;left=0;bottom=0;right=0;editable=1;overflow=hidden;labelBackgroundColor=none;rounded=1;align=center;verticalAlign=middle;horizontal=1;fontStyle=0;textShadow=0;labelBorderColor=none;" vertex="1" parent="pJRj6KPSanw1Twy7FeWH-122">
          <mxGeometry width="30" height="30" as="geometry">
            <mxRectangle width="30" height="30" as="alternateBounds" />
          </mxGeometry>
        </mxCell>
        <mxCell id="pJRj6KPSanw1Twy7FeWH-124" value="descricao" style="shape=partialRectangle;connectable=0;fillColor=none;top=0;left=0;bottom=0;right=0;align=center;spacingLeft=6;overflow=hidden;labelBackgroundColor=none;rounded=1;verticalAlign=middle;horizontal=1;fontStyle=0;textShadow=0;labelBorderColor=none;" vertex="1" parent="pJRj6KPSanw1Twy7FeWH-122">
          <mxGeometry x="30" width="150" height="30" as="geometry">
            <mxRectangle width="150" height="30" as="alternateBounds" />
          </mxGeometry>
        </mxCell>
        <mxCell id="WLiORzeEzc-y3uyr89sH-1" value="PRODUTO" style="shape=table;startSize=30;container=1;collapsible=1;childLayout=tableLayout;fixedRows=1;rowLines=0;fontStyle=1;align=center;resizeLast=1;labelBackgroundColor=none;rounded=1;direction=east;verticalAlign=middle;horizontal=1;textShadow=0;labelBorderColor=none;" vertex="1" parent="1">
          <mxGeometry x="-170" y="210" width="180" height="170" as="geometry" />
        </mxCell>
        <mxCell id="WLiORzeEzc-y3uyr89sH-2" value="" style="shape=tableRow;horizontal=1;startSize=0;swimlaneHead=0;swimlaneBody=0;fillColor=none;collapsible=0;dropTarget=0;points=[[0,0.5],[1,0.5]];portConstraint=eastwest;top=0;left=0;right=0;bottom=1;labelBackgroundColor=none;rounded=1;align=center;verticalAlign=middle;fontStyle=0;textShadow=0;labelBorderColor=none;" vertex="1" parent="WLiORzeEzc-y3uyr89sH-1">
          <mxGeometry y="30" width="180" height="20" as="geometry" />
        </mxCell>
        <mxCell id="WLiORzeEzc-y3uyr89sH-3" value="PK" style="shape=partialRectangle;connectable=0;fillColor=none;top=0;left=0;bottom=0;right=0;fontStyle=1;overflow=hidden;labelBackgroundColor=none;rounded=1;align=center;verticalAlign=middle;horizontal=1;textShadow=0;labelBorderColor=none;" vertex="1" parent="WLiORzeEzc-y3uyr89sH-2">
          <mxGeometry width="30" height="20" as="geometry">
            <mxRectangle width="30" height="20" as="alternateBounds" />
          </mxGeometry>
        </mxCell>
        <mxCell id="WLiORzeEzc-y3uyr89sH-4" value="ID" style="shape=partialRectangle;connectable=0;fillColor=none;top=0;left=0;bottom=0;right=0;align=center;spacingLeft=6;fontStyle=1;overflow=hidden;labelBackgroundColor=none;rounded=1;verticalAlign=middle;horizontal=1;textShadow=0;labelBorderColor=none;" vertex="1" parent="WLiORzeEzc-y3uyr89sH-2">
          <mxGeometry x="30" width="150" height="20" as="geometry">
            <mxRectangle width="150" height="20" as="alternateBounds" />
          </mxGeometry>
        </mxCell>
        <mxCell id="WLiORzeEzc-y3uyr89sH-5" value="" style="shape=tableRow;horizontal=1;startSize=0;swimlaneHead=0;swimlaneBody=0;fillColor=none;collapsible=0;dropTarget=0;points=[[0,0.5],[1,0.5]];portConstraint=eastwest;top=0;left=0;right=0;bottom=0;labelBackgroundColor=none;rounded=1;align=center;verticalAlign=middle;fontStyle=0;textShadow=0;labelBorderColor=none;" vertex="1" parent="WLiORzeEzc-y3uyr89sH-1">
          <mxGeometry y="50" width="180" height="30" as="geometry" />
        </mxCell>
        <mxCell id="WLiORzeEzc-y3uyr89sH-6" value="" style="shape=partialRectangle;connectable=0;fillColor=none;top=0;left=0;bottom=0;right=0;editable=1;overflow=hidden;labelBackgroundColor=none;rounded=1;align=center;verticalAlign=middle;horizontal=1;fontStyle=0;textShadow=0;labelBorderColor=none;" vertex="1" parent="WLiORzeEzc-y3uyr89sH-5">
          <mxGeometry width="30" height="30" as="geometry">
            <mxRectangle width="30" height="30" as="alternateBounds" />
          </mxGeometry>
        </mxCell>
        <mxCell id="WLiORzeEzc-y3uyr89sH-7" value="nome" style="shape=partialRectangle;connectable=0;fillColor=none;top=0;left=0;bottom=0;right=0;align=center;spacingLeft=6;overflow=hidden;labelBackgroundColor=none;rounded=1;verticalAlign=middle;horizontal=1;fontStyle=0;textShadow=0;labelBorderColor=none;" vertex="1" parent="WLiORzeEzc-y3uyr89sH-5">
          <mxGeometry x="30" width="150" height="30" as="geometry">
            <mxRectangle width="150" height="30" as="alternateBounds" />
          </mxGeometry>
        </mxCell>
        <mxCell id="WLiORzeEzc-y3uyr89sH-8" value="" style="shape=tableRow;horizontal=1;startSize=0;swimlaneHead=0;swimlaneBody=0;fillColor=none;collapsible=0;dropTarget=0;points=[[0,0.5],[1,0.5]];portConstraint=eastwest;top=0;left=0;right=0;bottom=0;labelBackgroundColor=none;rounded=1;align=center;verticalAlign=middle;fontStyle=0;textShadow=0;labelBorderColor=none;" vertex="1" parent="WLiORzeEzc-y3uyr89sH-1">
          <mxGeometry y="80" width="180" height="30" as="geometry" />
        </mxCell>
        <mxCell id="WLiORzeEzc-y3uyr89sH-9" value="" style="shape=partialRectangle;connectable=0;fillColor=none;top=0;left=0;bottom=0;right=0;editable=1;overflow=hidden;labelBackgroundColor=none;rounded=1;align=center;verticalAlign=middle;horizontal=1;fontStyle=0;textShadow=0;labelBorderColor=none;" vertex="1" parent="WLiORzeEzc-y3uyr89sH-8">
          <mxGeometry width="30" height="30" as="geometry">
            <mxRectangle width="30" height="30" as="alternateBounds" />
          </mxGeometry>
        </mxCell>
        <mxCell id="WLiORzeEzc-y3uyr89sH-10" value="descricao" style="shape=partialRectangle;connectable=0;fillColor=none;top=0;left=0;bottom=0;right=0;align=center;spacingLeft=6;overflow=hidden;labelBackgroundColor=none;rounded=1;verticalAlign=middle;horizontal=1;fontStyle=0;textShadow=0;labelBorderColor=none;" vertex="1" parent="WLiORzeEzc-y3uyr89sH-8">
          <mxGeometry x="30" width="150" height="30" as="geometry">
            <mxRectangle width="150" height="30" as="alternateBounds" />
          </mxGeometry>
        </mxCell>
        <mxCell id="WLiORzeEzc-y3uyr89sH-11" value="" style="shape=tableRow;horizontal=1;startSize=0;swimlaneHead=0;swimlaneBody=0;fillColor=none;collapsible=0;dropTarget=0;points=[[0,0.5],[1,0.5]];portConstraint=eastwest;top=0;left=0;right=0;bottom=0;labelBackgroundColor=none;rounded=1;align=center;verticalAlign=middle;fontStyle=0;textShadow=0;labelBorderColor=none;" vertex="1" parent="WLiORzeEzc-y3uyr89sH-1">
          <mxGeometry y="110" width="180" height="30" as="geometry" />
        </mxCell>
        <mxCell id="WLiORzeEzc-y3uyr89sH-12" value="" style="shape=partialRectangle;connectable=0;fillColor=none;top=0;left=0;bottom=0;right=0;editable=1;overflow=hidden;labelBackgroundColor=none;rounded=1;align=center;verticalAlign=middle;horizontal=1;fontStyle=0;textShadow=0;labelBorderColor=none;" vertex="1" parent="WLiORzeEzc-y3uyr89sH-11">
          <mxGeometry width="30" height="30" as="geometry">
            <mxRectangle width="30" height="30" as="alternateBounds" />
          </mxGeometry>
        </mxCell>
        <mxCell id="WLiORzeEzc-y3uyr89sH-13" value="preco" style="shape=partialRectangle;connectable=0;fillColor=none;top=0;left=0;bottom=0;right=0;align=center;spacingLeft=6;overflow=hidden;labelBackgroundColor=none;rounded=1;verticalAlign=middle;horizontal=1;fontStyle=0;textShadow=0;labelBorderColor=none;" vertex="1" parent="WLiORzeEzc-y3uyr89sH-11">
          <mxGeometry x="30" width="150" height="30" as="geometry">
            <mxRectangle width="150" height="30" as="alternateBounds" />
          </mxGeometry>
        </mxCell>
        <mxCell id="WLiORzeEzc-y3uyr89sH-14" value="" style="shape=tableRow;horizontal=1;startSize=0;swimlaneHead=0;swimlaneBody=0;fillColor=none;collapsible=0;dropTarget=0;points=[[0,0.5],[1,0.5]];portConstraint=eastwest;top=0;left=0;right=0;bottom=0;labelBackgroundColor=none;rounded=1;align=center;verticalAlign=middle;fontStyle=0;textShadow=0;labelBorderColor=none;" vertex="1" parent="WLiORzeEzc-y3uyr89sH-1">
          <mxGeometry y="140" width="180" height="30" as="geometry" />
        </mxCell>
        <mxCell id="WLiORzeEzc-y3uyr89sH-15" value="FK" style="shape=partialRectangle;connectable=0;fillColor=none;top=0;left=0;bottom=0;right=0;editable=1;overflow=hidden;labelBackgroundColor=none;rounded=1;align=center;verticalAlign=middle;horizontal=1;fontStyle=0;textShadow=0;labelBorderColor=none;" vertex="1" parent="WLiORzeEzc-y3uyr89sH-14">
          <mxGeometry width="30" height="30" as="geometry">
            <mxRectangle width="30" height="30" as="alternateBounds" />
          </mxGeometry>
        </mxCell>
        <mxCell id="WLiORzeEzc-y3uyr89sH-16" value="categoria_id" style="shape=partialRectangle;connectable=0;fillColor=none;top=0;left=0;bottom=0;right=0;align=center;spacingLeft=6;overflow=hidden;labelBackgroundColor=none;rounded=1;verticalAlign=middle;horizontal=1;fontStyle=0;textShadow=0;labelBorderColor=none;" vertex="1" parent="WLiORzeEzc-y3uyr89sH-14">
          <mxGeometry x="30" width="150" height="30" as="geometry">
            <mxRectangle width="150" height="30" as="alternateBounds" />
          </mxGeometry>
        </mxCell>
        <mxCell id="Es7GD8rCJSh4pXtkUtaP-1" value="PEDIDO" style="shape=table;startSize=30;container=1;collapsible=1;childLayout=tableLayout;fixedRows=1;rowLines=0;fontStyle=1;align=center;resizeLast=1;labelBackgroundColor=none;rounded=1;direction=east;verticalAlign=middle;horizontal=1;textShadow=0;labelBorderColor=none;" vertex="1" parent="1">
          <mxGeometry x="-180" y="-20" width="180" height="150" as="geometry" />
        </mxCell>
        <mxCell id="Es7GD8rCJSh4pXtkUtaP-2" value="" style="shape=tableRow;horizontal=1;startSize=0;swimlaneHead=0;swimlaneBody=0;fillColor=none;collapsible=0;dropTarget=0;points=[[0,0.5],[1,0.5]];portConstraint=eastwest;top=0;left=0;right=0;bottom=1;labelBackgroundColor=none;rounded=1;align=center;verticalAlign=middle;fontStyle=0;textShadow=0;labelBorderColor=none;" vertex="1" parent="Es7GD8rCJSh4pXtkUtaP-1">
          <mxGeometry y="30" width="180" height="30" as="geometry" />
        </mxCell>
        <mxCell id="Es7GD8rCJSh4pXtkUtaP-3" value="PK" style="shape=partialRectangle;connectable=0;fillColor=none;top=0;left=0;bottom=0;right=0;fontStyle=1;overflow=hidden;labelBackgroundColor=none;rounded=1;align=center;verticalAlign=middle;horizontal=1;textShadow=0;labelBorderColor=none;" vertex="1" parent="Es7GD8rCJSh4pXtkUtaP-2">
          <mxGeometry width="30" height="30" as="geometry">
            <mxRectangle width="30" height="30" as="alternateBounds" />
          </mxGeometry>
        </mxCell>
        <mxCell id="Es7GD8rCJSh4pXtkUtaP-4" value="ID" style="shape=partialRectangle;connectable=0;fillColor=none;top=0;left=0;bottom=0;right=0;align=center;spacingLeft=6;fontStyle=1;overflow=hidden;labelBackgroundColor=none;rounded=1;verticalAlign=middle;horizontal=1;textShadow=0;labelBorderColor=none;" vertex="1" parent="Es7GD8rCJSh4pXtkUtaP-2">
          <mxGeometry x="30" width="150" height="30" as="geometry">
            <mxRectangle width="150" height="30" as="alternateBounds" />
          </mxGeometry>
        </mxCell>
        <mxCell id="Es7GD8rCJSh4pXtkUtaP-5" value="" style="shape=tableRow;horizontal=1;startSize=0;swimlaneHead=0;swimlaneBody=0;fillColor=none;collapsible=0;dropTarget=0;points=[[0,0.5],[1,0.5]];portConstraint=eastwest;top=0;left=0;right=0;bottom=0;labelBackgroundColor=none;rounded=1;align=center;verticalAlign=middle;fontStyle=0;textShadow=0;labelBorderColor=none;" vertex="1" parent="Es7GD8rCJSh4pXtkUtaP-1">
          <mxGeometry y="60" width="180" height="30" as="geometry" />
        </mxCell>
        <mxCell id="Es7GD8rCJSh4pXtkUtaP-6" value="FK" style="shape=partialRectangle;connectable=0;fillColor=none;top=0;left=0;bottom=0;right=0;editable=1;overflow=hidden;labelBackgroundColor=none;rounded=1;align=center;verticalAlign=middle;horizontal=1;fontStyle=0;textShadow=0;labelBorderColor=none;" vertex="1" parent="Es7GD8rCJSh4pXtkUtaP-5">
          <mxGeometry width="30" height="30" as="geometry">
            <mxRectangle width="30" height="30" as="alternateBounds" />
          </mxGeometry>
        </mxCell>
        <mxCell id="Es7GD8rCJSh4pXtkUtaP-7" value="usuario_id" style="shape=partialRectangle;connectable=0;fillColor=none;top=0;left=0;bottom=0;right=0;align=center;spacingLeft=6;overflow=hidden;labelBackgroundColor=none;rounded=1;verticalAlign=middle;horizontal=1;fontStyle=0;textShadow=0;labelBorderColor=none;" vertex="1" parent="Es7GD8rCJSh4pXtkUtaP-5">
          <mxGeometry x="30" width="150" height="30" as="geometry">
            <mxRectangle width="150" height="30" as="alternateBounds" />
          </mxGeometry>
        </mxCell>
        <mxCell id="Es7GD8rCJSh4pXtkUtaP-8" value="" style="shape=tableRow;horizontal=1;startSize=0;swimlaneHead=0;swimlaneBody=0;fillColor=none;collapsible=0;dropTarget=0;points=[[0,0.5],[1,0.5]];portConstraint=eastwest;top=0;left=0;right=0;bottom=0;labelBackgroundColor=none;rounded=1;align=center;verticalAlign=middle;fontStyle=0;textShadow=0;labelBorderColor=none;" vertex="1" parent="Es7GD8rCJSh4pXtkUtaP-1">
          <mxGeometry y="90" width="180" height="30" as="geometry" />
        </mxCell>
        <mxCell id="Es7GD8rCJSh4pXtkUtaP-9" value="" style="shape=partialRectangle;connectable=0;fillColor=none;top=0;left=0;bottom=0;right=0;editable=1;overflow=hidden;labelBackgroundColor=none;rounded=1;align=center;verticalAlign=middle;horizontal=1;fontStyle=0;textShadow=0;labelBorderColor=none;" vertex="1" parent="Es7GD8rCJSh4pXtkUtaP-8">
          <mxGeometry width="30" height="30" as="geometry">
            <mxRectangle width="30" height="30" as="alternateBounds" />
          </mxGeometry>
        </mxCell>
        <mxCell id="Es7GD8rCJSh4pXtkUtaP-10" value="data_criacao" style="shape=partialRectangle;connectable=0;fillColor=none;top=0;left=0;bottom=0;right=0;align=center;spacingLeft=6;overflow=hidden;labelBackgroundColor=none;rounded=1;verticalAlign=middle;horizontal=1;fontStyle=0;textShadow=0;labelBorderColor=none;" vertex="1" parent="Es7GD8rCJSh4pXtkUtaP-8">
          <mxGeometry x="30" width="150" height="30" as="geometry">
            <mxRectangle width="150" height="30" as="alternateBounds" />
          </mxGeometry>
        </mxCell>
        <mxCell id="Es7GD8rCJSh4pXtkUtaP-11" value="" style="shape=tableRow;horizontal=1;startSize=0;swimlaneHead=0;swimlaneBody=0;fillColor=none;collapsible=0;dropTarget=0;points=[[0,0.5],[1,0.5]];portConstraint=eastwest;top=0;left=0;right=0;bottom=0;labelBackgroundColor=none;rounded=1;align=center;verticalAlign=middle;fontStyle=0;textShadow=0;labelBorderColor=none;" vertex="1" parent="Es7GD8rCJSh4pXtkUtaP-1">
          <mxGeometry y="120" width="180" height="30" as="geometry" />
        </mxCell>
        <mxCell id="Es7GD8rCJSh4pXtkUtaP-12" value="" style="shape=partialRectangle;connectable=0;fillColor=none;top=0;left=0;bottom=0;right=0;editable=1;overflow=hidden;labelBackgroundColor=none;rounded=1;align=center;verticalAlign=middle;horizontal=1;fontStyle=0;textShadow=0;labelBorderColor=none;" vertex="1" parent="Es7GD8rCJSh4pXtkUtaP-11">
          <mxGeometry width="30" height="30" as="geometry">
            <mxRectangle width="30" height="30" as="alternateBounds" />
          </mxGeometry>
        </mxCell>
        <mxCell id="Es7GD8rCJSh4pXtkUtaP-13" value="status" style="shape=partialRectangle;connectable=0;fillColor=none;top=0;left=0;bottom=0;right=0;align=center;spacingLeft=6;overflow=hidden;labelBackgroundColor=none;rounded=1;verticalAlign=middle;horizontal=1;fontStyle=0;textShadow=0;labelBorderColor=none;" vertex="1" parent="Es7GD8rCJSh4pXtkUtaP-11">
          <mxGeometry x="30" width="150" height="30" as="geometry">
            <mxRectangle width="150" height="30" as="alternateBounds" />
          </mxGeometry>
        </mxCell>
        <mxCell id="Es7GD8rCJSh4pXtkUtaP-18" value="ITENS DE PEDIDO" style="shape=table;startSize=30;container=1;collapsible=1;childLayout=tableLayout;fixedRows=1;rowLines=0;fontStyle=1;align=center;resizeLast=1;labelBackgroundColor=none;rounded=1;direction=east;verticalAlign=middle;horizontal=1;textShadow=0;labelBorderColor=none;" vertex="1" parent="1">
          <mxGeometry x="70" y="-20" width="180" height="180" as="geometry" />
        </mxCell>
        <mxCell id="Es7GD8rCJSh4pXtkUtaP-19" value="" style="shape=tableRow;horizontal=1;startSize=0;swimlaneHead=0;swimlaneBody=0;fillColor=none;collapsible=0;dropTarget=0;points=[[0,0.5],[1,0.5]];portConstraint=eastwest;top=0;left=0;right=0;bottom=1;labelBackgroundColor=none;rounded=1;align=center;verticalAlign=middle;fontStyle=0;textShadow=0;labelBorderColor=none;" vertex="1" parent="Es7GD8rCJSh4pXtkUtaP-18">
          <mxGeometry y="30" width="180" height="30" as="geometry" />
        </mxCell>
        <mxCell id="Es7GD8rCJSh4pXtkUtaP-20" value="PK" style="shape=partialRectangle;connectable=0;fillColor=none;top=0;left=0;bottom=0;right=0;fontStyle=1;overflow=hidden;labelBackgroundColor=none;rounded=1;align=center;verticalAlign=middle;horizontal=1;textShadow=0;labelBorderColor=none;" vertex="1" parent="Es7GD8rCJSh4pXtkUtaP-19">
          <mxGeometry width="30" height="30" as="geometry">
            <mxRectangle width="30" height="30" as="alternateBounds" />
          </mxGeometry>
        </mxCell>
        <mxCell id="Es7GD8rCJSh4pXtkUtaP-21" value="ID" style="shape=partialRectangle;connectable=0;fillColor=none;top=0;left=0;bottom=0;right=0;align=center;spacingLeft=6;fontStyle=1;overflow=hidden;labelBackgroundColor=none;rounded=1;verticalAlign=middle;horizontal=1;textShadow=0;labelBorderColor=none;" vertex="1" parent="Es7GD8rCJSh4pXtkUtaP-19">
          <mxGeometry x="30" width="150" height="30" as="geometry">
            <mxRectangle width="150" height="30" as="alternateBounds" />
          </mxGeometry>
        </mxCell>
        <mxCell id="Es7GD8rCJSh4pXtkUtaP-22" value="" style="shape=tableRow;horizontal=1;startSize=0;swimlaneHead=0;swimlaneBody=0;fillColor=none;collapsible=0;dropTarget=0;points=[[0,0.5],[1,0.5]];portConstraint=eastwest;top=0;left=0;right=0;bottom=0;labelBackgroundColor=none;rounded=1;align=center;verticalAlign=middle;fontStyle=0;textShadow=0;labelBorderColor=none;" vertex="1" parent="Es7GD8rCJSh4pXtkUtaP-18">
          <mxGeometry y="60" width="180" height="30" as="geometry" />
        </mxCell>
        <mxCell id="Es7GD8rCJSh4pXtkUtaP-23" value="FK" style="shape=partialRectangle;connectable=0;fillColor=none;top=0;left=0;bottom=0;right=0;editable=1;overflow=hidden;labelBackgroundColor=none;rounded=1;align=center;verticalAlign=middle;horizontal=1;fontStyle=0;textShadow=0;labelBorderColor=none;" vertex="1" parent="Es7GD8rCJSh4pXtkUtaP-22">
          <mxGeometry width="30" height="30" as="geometry">
            <mxRectangle width="30" height="30" as="alternateBounds" />
          </mxGeometry>
        </mxCell>
        <mxCell id="Es7GD8rCJSh4pXtkUtaP-24" value="pedido_id" style="shape=partialRectangle;connectable=0;fillColor=none;top=0;left=0;bottom=0;right=0;align=center;spacingLeft=6;overflow=hidden;labelBackgroundColor=none;rounded=1;verticalAlign=middle;horizontal=1;fontStyle=0;textShadow=0;labelBorderColor=none;" vertex="1" parent="Es7GD8rCJSh4pXtkUtaP-22">
          <mxGeometry x="30" width="150" height="30" as="geometry">
            <mxRectangle width="150" height="30" as="alternateBounds" />
          </mxGeometry>
        </mxCell>
        <mxCell id="Es7GD8rCJSh4pXtkUtaP-25" value="" style="shape=tableRow;horizontal=1;startSize=0;swimlaneHead=0;swimlaneBody=0;fillColor=none;collapsible=0;dropTarget=0;points=[[0,0.5],[1,0.5]];portConstraint=eastwest;top=0;left=0;right=0;bottom=0;labelBackgroundColor=none;rounded=1;align=center;verticalAlign=middle;fontStyle=0;textShadow=0;labelBorderColor=none;" vertex="1" parent="Es7GD8rCJSh4pXtkUtaP-18">
          <mxGeometry y="90" width="180" height="30" as="geometry" />
        </mxCell>
        <mxCell id="Es7GD8rCJSh4pXtkUtaP-26" value="FK" style="shape=partialRectangle;connectable=0;fillColor=none;top=0;left=0;bottom=0;right=0;editable=1;overflow=hidden;labelBackgroundColor=none;rounded=1;align=center;verticalAlign=middle;horizontal=1;fontStyle=0;textShadow=0;labelBorderColor=none;" vertex="1" parent="Es7GD8rCJSh4pXtkUtaP-25">
          <mxGeometry width="30" height="30" as="geometry">
            <mxRectangle width="30" height="30" as="alternateBounds" />
          </mxGeometry>
        </mxCell>
        <mxCell id="Es7GD8rCJSh4pXtkUtaP-27" value="produto_id" style="shape=partialRectangle;connectable=0;fillColor=none;top=0;left=0;bottom=0;right=0;align=center;spacingLeft=6;overflow=hidden;labelBackgroundColor=none;rounded=1;verticalAlign=middle;horizontal=1;fontStyle=0;textShadow=0;labelBorderColor=none;" vertex="1" parent="Es7GD8rCJSh4pXtkUtaP-25">
          <mxGeometry x="30" width="150" height="30" as="geometry">
            <mxRectangle width="150" height="30" as="alternateBounds" />
          </mxGeometry>
        </mxCell>
        <mxCell id="Es7GD8rCJSh4pXtkUtaP-28" value="" style="shape=tableRow;horizontal=1;startSize=0;swimlaneHead=0;swimlaneBody=0;fillColor=none;collapsible=0;dropTarget=0;points=[[0,0.5],[1,0.5]];portConstraint=eastwest;top=0;left=0;right=0;bottom=0;labelBackgroundColor=none;rounded=1;align=center;verticalAlign=middle;fontStyle=0;textShadow=0;labelBorderColor=none;" vertex="1" parent="Es7GD8rCJSh4pXtkUtaP-18">
          <mxGeometry y="120" width="180" height="30" as="geometry" />
        </mxCell>
        <mxCell id="Es7GD8rCJSh4pXtkUtaP-29" value="" style="shape=partialRectangle;connectable=0;fillColor=none;top=0;left=0;bottom=0;right=0;editable=1;overflow=hidden;labelBackgroundColor=none;rounded=1;align=center;verticalAlign=middle;horizontal=1;fontStyle=0;textShadow=0;labelBorderColor=none;" vertex="1" parent="Es7GD8rCJSh4pXtkUtaP-28">
          <mxGeometry width="30" height="30" as="geometry">
            <mxRectangle width="30" height="30" as="alternateBounds" />
          </mxGeometry>
        </mxCell>
        <mxCell id="Es7GD8rCJSh4pXtkUtaP-30" value="quantidade" style="shape=partialRectangle;connectable=0;fillColor=none;top=0;left=0;bottom=0;right=0;align=center;spacingLeft=6;overflow=hidden;labelBackgroundColor=none;rounded=1;verticalAlign=middle;horizontal=1;fontStyle=0;textShadow=0;labelBorderColor=none;" vertex="1" parent="Es7GD8rCJSh4pXtkUtaP-28">
          <mxGeometry x="30" width="150" height="30" as="geometry">
            <mxRectangle width="150" height="30" as="alternateBounds" />
          </mxGeometry>
        </mxCell>
        <mxCell id="Es7GD8rCJSh4pXtkUtaP-31" value="" style="shape=tableRow;horizontal=1;startSize=0;swimlaneHead=0;swimlaneBody=0;fillColor=none;collapsible=0;dropTarget=0;points=[[0,0.5],[1,0.5]];portConstraint=eastwest;top=0;left=0;right=0;bottom=0;labelBackgroundColor=none;rounded=1;align=center;verticalAlign=middle;fontStyle=0;textShadow=0;labelBorderColor=none;" vertex="1" parent="Es7GD8rCJSh4pXtkUtaP-18">
          <mxGeometry y="150" width="180" height="30" as="geometry" />
        </mxCell>
        <mxCell id="Es7GD8rCJSh4pXtkUtaP-32" value="" style="shape=partialRectangle;connectable=0;fillColor=none;top=0;left=0;bottom=0;right=0;editable=1;overflow=hidden;labelBackgroundColor=none;rounded=1;align=center;verticalAlign=middle;horizontal=1;fontStyle=0;textShadow=0;labelBorderColor=none;" vertex="1" parent="Es7GD8rCJSh4pXtkUtaP-31">
          <mxGeometry width="30" height="30" as="geometry">
            <mxRectangle width="30" height="30" as="alternateBounds" />
          </mxGeometry>
        </mxCell>
        <mxCell id="Es7GD8rCJSh4pXtkUtaP-33" value="categoria_id" style="shape=partialRectangle;connectable=0;fillColor=none;top=0;left=0;bottom=0;right=0;align=center;spacingLeft=6;overflow=hidden;labelBackgroundColor=none;rounded=1;verticalAlign=middle;horizontal=1;fontStyle=0;textShadow=0;labelBorderColor=none;" vertex="1" parent="Es7GD8rCJSh4pXtkUtaP-31">
          <mxGeometry x="30" width="150" height="30" as="geometry">
            <mxRectangle width="150" height="30" as="alternateBounds" />
          </mxGeometry>
        </mxCell>
        <mxCell id="Es7GD8rCJSh4pXtkUtaP-37" value="TAG" style="shape=table;startSize=30;container=1;collapsible=1;childLayout=tableLayout;fixedRows=1;rowLines=0;fontStyle=1;align=center;resizeLast=1;labelBackgroundColor=none;rounded=1;direction=east;verticalAlign=middle;horizontal=1;textShadow=0;labelBorderColor=none;" vertex="1" parent="1">
          <mxGeometry x="-413" y="410" width="180" height="90" as="geometry" />
        </mxCell>
        <mxCell id="Es7GD8rCJSh4pXtkUtaP-38" value="" style="shape=tableRow;horizontal=1;startSize=0;swimlaneHead=0;swimlaneBody=0;fillColor=none;collapsible=0;dropTarget=0;points=[[0,0.5],[1,0.5]];portConstraint=eastwest;top=0;left=0;right=0;bottom=1;labelBackgroundColor=none;rounded=1;align=center;verticalAlign=middle;fontStyle=0;textShadow=0;labelBorderColor=none;" vertex="1" parent="Es7GD8rCJSh4pXtkUtaP-37">
          <mxGeometry y="30" width="180" height="30" as="geometry" />
        </mxCell>
        <mxCell id="Es7GD8rCJSh4pXtkUtaP-39" value="PK" style="shape=partialRectangle;connectable=0;fillColor=none;top=0;left=0;bottom=0;right=0;fontStyle=1;overflow=hidden;labelBackgroundColor=none;rounded=1;align=center;verticalAlign=middle;horizontal=1;textShadow=0;labelBorderColor=none;" vertex="1" parent="Es7GD8rCJSh4pXtkUtaP-38">
          <mxGeometry width="30" height="30" as="geometry">
            <mxRectangle width="30" height="30" as="alternateBounds" />
          </mxGeometry>
        </mxCell>
        <mxCell id="Es7GD8rCJSh4pXtkUtaP-40" value="ID" style="shape=partialRectangle;connectable=0;fillColor=none;top=0;left=0;bottom=0;right=0;align=center;spacingLeft=6;fontStyle=1;overflow=hidden;labelBackgroundColor=none;rounded=1;verticalAlign=middle;horizontal=1;textShadow=0;labelBorderColor=none;" vertex="1" parent="Es7GD8rCJSh4pXtkUtaP-38">
          <mxGeometry x="30" width="150" height="30" as="geometry">
            <mxRectangle width="150" height="30" as="alternateBounds" />
          </mxGeometry>
        </mxCell>
        <mxCell id="Es7GD8rCJSh4pXtkUtaP-41" value="" style="shape=tableRow;horizontal=1;startSize=0;swimlaneHead=0;swimlaneBody=0;fillColor=none;collapsible=0;dropTarget=0;points=[[0,0.5],[1,0.5]];portConstraint=eastwest;top=0;left=0;right=0;bottom=0;labelBackgroundColor=none;rounded=1;align=center;verticalAlign=middle;fontStyle=0;textShadow=0;labelBorderColor=none;" vertex="1" parent="Es7GD8rCJSh4pXtkUtaP-37">
          <mxGeometry y="60" width="180" height="30" as="geometry" />
        </mxCell>
        <mxCell id="Es7GD8rCJSh4pXtkUtaP-42" value="" style="shape=partialRectangle;connectable=0;fillColor=none;top=0;left=0;bottom=0;right=0;editable=1;overflow=hidden;labelBackgroundColor=none;rounded=1;align=center;verticalAlign=middle;horizontal=1;fontStyle=0;textShadow=0;labelBorderColor=none;" vertex="1" parent="Es7GD8rCJSh4pXtkUtaP-41">
          <mxGeometry width="30" height="30" as="geometry">
            <mxRectangle width="30" height="30" as="alternateBounds" />
          </mxGeometry>
        </mxCell>
        <mxCell id="Es7GD8rCJSh4pXtkUtaP-43" value="nome" style="shape=partialRectangle;connectable=0;fillColor=none;top=0;left=0;bottom=0;right=0;align=center;spacingLeft=6;overflow=hidden;labelBackgroundColor=none;rounded=1;verticalAlign=middle;horizontal=1;fontStyle=0;textShadow=0;labelBorderColor=none;" vertex="1" parent="Es7GD8rCJSh4pXtkUtaP-41">
          <mxGeometry x="30" width="150" height="30" as="geometry">
            <mxRectangle width="150" height="30" as="alternateBounds" />
          </mxGeometry>
        </mxCell>
        <mxCell id="Es7GD8rCJSh4pXtkUtaP-50" value="PRODUTOS TAG" style="shape=table;startSize=30;container=1;collapsible=1;childLayout=tableLayout;fixedRows=1;rowLines=0;fontStyle=1;align=center;resizeLast=1;labelBackgroundColor=none;rounded=1;direction=east;verticalAlign=middle;horizontal=1;textShadow=0;labelBorderColor=none;" vertex="1" parent="1">
          <mxGeometry x="-170" y="410" width="180" height="120" as="geometry" />
        </mxCell>
        <mxCell id="Es7GD8rCJSh4pXtkUtaP-51" value="" style="shape=tableRow;horizontal=1;startSize=0;swimlaneHead=0;swimlaneBody=0;fillColor=none;collapsible=0;dropTarget=0;points=[[0,0.5],[1,0.5]];portConstraint=eastwest;top=0;left=0;right=0;bottom=1;labelBackgroundColor=none;rounded=1;align=center;verticalAlign=middle;fontStyle=0;textShadow=0;labelBorderColor=none;" vertex="1" parent="Es7GD8rCJSh4pXtkUtaP-50">
          <mxGeometry y="30" width="180" height="30" as="geometry" />
        </mxCell>
        <mxCell id="Es7GD8rCJSh4pXtkUtaP-52" value="PK" style="shape=partialRectangle;connectable=0;fillColor=none;top=0;left=0;bottom=0;right=0;fontStyle=1;overflow=hidden;labelBackgroundColor=none;rounded=1;align=center;verticalAlign=middle;horizontal=1;textShadow=0;labelBorderColor=none;" vertex="1" parent="Es7GD8rCJSh4pXtkUtaP-51">
          <mxGeometry width="30" height="30" as="geometry">
            <mxRectangle width="30" height="30" as="alternateBounds" />
          </mxGeometry>
        </mxCell>
        <mxCell id="Es7GD8rCJSh4pXtkUtaP-53" value="ID" style="shape=partialRectangle;connectable=0;fillColor=none;top=0;left=0;bottom=0;right=0;align=center;spacingLeft=6;fontStyle=1;overflow=hidden;labelBackgroundColor=none;rounded=1;verticalAlign=middle;horizontal=1;textShadow=0;labelBorderColor=none;" vertex="1" parent="Es7GD8rCJSh4pXtkUtaP-51">
          <mxGeometry x="30" width="150" height="30" as="geometry">
            <mxRectangle width="150" height="30" as="alternateBounds" />
          </mxGeometry>
        </mxCell>
        <mxCell id="Es7GD8rCJSh4pXtkUtaP-54" value="" style="shape=tableRow;horizontal=1;startSize=0;swimlaneHead=0;swimlaneBody=0;fillColor=none;collapsible=0;dropTarget=0;points=[[0,0.5],[1,0.5]];portConstraint=eastwest;top=0;left=0;right=0;bottom=0;labelBackgroundColor=none;rounded=1;align=center;verticalAlign=middle;fontStyle=0;textShadow=0;labelBorderColor=none;" vertex="1" parent="Es7GD8rCJSh4pXtkUtaP-50">
          <mxGeometry y="60" width="180" height="30" as="geometry" />
        </mxCell>
        <mxCell id="Es7GD8rCJSh4pXtkUtaP-55" value="FK" style="shape=partialRectangle;connectable=0;fillColor=none;top=0;left=0;bottom=0;right=0;editable=1;overflow=hidden;labelBackgroundColor=none;rounded=1;align=center;verticalAlign=middle;horizontal=1;fontStyle=0;textShadow=0;labelBorderColor=none;" vertex="1" parent="Es7GD8rCJSh4pXtkUtaP-54">
          <mxGeometry width="30" height="30" as="geometry">
            <mxRectangle width="30" height="30" as="alternateBounds" />
          </mxGeometry>
        </mxCell>
        <mxCell id="Es7GD8rCJSh4pXtkUtaP-56" value="produto_id" style="shape=partialRectangle;connectable=0;fillColor=none;top=0;left=0;bottom=0;right=0;align=center;spacingLeft=6;overflow=hidden;labelBackgroundColor=none;rounded=1;verticalAlign=middle;horizontal=1;fontStyle=0;textShadow=0;labelBorderColor=none;" vertex="1" parent="Es7GD8rCJSh4pXtkUtaP-54">
          <mxGeometry x="30" width="150" height="30" as="geometry">
            <mxRectangle width="150" height="30" as="alternateBounds" />
          </mxGeometry>
        </mxCell>
        <mxCell id="Es7GD8rCJSh4pXtkUtaP-57" value="" style="shape=tableRow;horizontal=1;startSize=0;swimlaneHead=0;swimlaneBody=0;fillColor=none;collapsible=0;dropTarget=0;points=[[0,0.5],[1,0.5]];portConstraint=eastwest;top=0;left=0;right=0;bottom=0;labelBackgroundColor=none;rounded=1;align=center;verticalAlign=middle;fontStyle=0;textShadow=0;labelBorderColor=none;" vertex="1" parent="Es7GD8rCJSh4pXtkUtaP-50">
          <mxGeometry y="90" width="180" height="30" as="geometry" />
        </mxCell>
        <mxCell id="Es7GD8rCJSh4pXtkUtaP-58" value="FK" style="shape=partialRectangle;connectable=0;fillColor=none;top=0;left=0;bottom=0;right=0;editable=1;overflow=hidden;labelBackgroundColor=none;rounded=1;align=center;verticalAlign=middle;horizontal=1;fontStyle=0;textShadow=0;labelBorderColor=none;" vertex="1" parent="Es7GD8rCJSh4pXtkUtaP-57">
          <mxGeometry width="30" height="30" as="geometry">
            <mxRectangle width="30" height="30" as="alternateBounds" />
          </mxGeometry>
        </mxCell>
        <mxCell id="Es7GD8rCJSh4pXtkUtaP-59" value="tag_id" style="shape=partialRectangle;connectable=0;fillColor=none;top=0;left=0;bottom=0;right=0;align=center;spacingLeft=6;overflow=hidden;labelBackgroundColor=none;rounded=1;verticalAlign=middle;horizontal=1;fontStyle=0;textShadow=0;labelBorderColor=none;" vertex="1" parent="Es7GD8rCJSh4pXtkUtaP-57">
          <mxGeometry x="30" width="150" height="30" as="geometry">
            <mxRectangle width="150" height="30" as="alternateBounds" />
          </mxGeometry>
        </mxCell>
        <mxCell id="pJRj6KPSanw1Twy7FeWH-113" value="" style="edgeStyle=entityRelationEdgeStyle;fontSize=12;endArrow=ERmandOne;startArrow=ERmandOne;rounded=0;labelBackgroundColor=none;fontColor=default;align=center;verticalAlign=middle;horizontal=1;fontStyle=0;textShadow=0;labelBorderColor=none;" edge="1" parent="1" source="pJRj6KPSanw1Twy7FeWH-88" target="pJRj6KPSanw1Twy7FeWH-104">
          <mxGeometry width="100" height="100" relative="1" as="geometry">
            <mxPoint x="314" y="650" as="sourcePoint" />
            <mxPoint x="414" y="550" as="targetPoint" />
          </mxGeometry>
        </mxCell>
        <mxCell id="WLiORzeEzc-y3uyr89sH-20" value="" style="edgeStyle=entityRelationEdgeStyle;fontSize=12;endArrow=ERoneToMany;rounded=0;labelBackgroundColor=none;fontColor=default;align=center;verticalAlign=middle;horizontal=1;fontStyle=0;textShadow=0;labelBorderColor=none;" edge="1" parent="1" source="pJRj6KPSanw1Twy7FeWH-116" target="WLiORzeEzc-y3uyr89sH-14">
          <mxGeometry width="100" height="100" relative="1" as="geometry">
            <mxPoint x="-240" y="680" as="sourcePoint" />
            <mxPoint x="-300" y="560" as="targetPoint" />
          </mxGeometry>
        </mxCell>
        <mxCell id="Es7GD8rCJSh4pXtkUtaP-17" value="" style="edgeStyle=entityRelationEdgeStyle;fontSize=12;endArrow=ERoneToMany;rounded=0;align=center;verticalAlign=middle;horizontal=1;fontStyle=0;textShadow=0;labelBorderColor=none;labelBackgroundColor=none;" edge="1" parent="1" source="pJRj6KPSanw1Twy7FeWH-88" target="Es7GD8rCJSh4pXtkUtaP-5">
          <mxGeometry width="100" height="100" relative="1" as="geometry">
            <mxPoint x="-10" y="60" as="sourcePoint" />
            <mxPoint x="550" y="190" as="targetPoint" />
            <Array as="points">
              <mxPoint x="510" y="160" />
              <mxPoint y="230" />
              <mxPoint x="10" y="260" />
              <mxPoint x="40" y="240" />
              <mxPoint x="40" y="220" />
            </Array>
          </mxGeometry>
        </mxCell>
        <mxCell id="Es7GD8rCJSh4pXtkUtaP-34" value="" style="edgeStyle=entityRelationEdgeStyle;fontSize=12;endArrow=ERoneToMany;rounded=0;entryX=0;entryY=0.5;entryDx=0;entryDy=0;exitX=1;exitY=0.5;exitDx=0;exitDy=0;align=center;verticalAlign=middle;horizontal=1;fontStyle=0;textShadow=0;labelBorderColor=none;labelBackgroundColor=none;" edge="1" parent="1" source="WLiORzeEzc-y3uyr89sH-2" target="Es7GD8rCJSh4pXtkUtaP-25">
          <mxGeometry width="100" height="100" relative="1" as="geometry">
            <mxPoint x="150" y="340" as="sourcePoint" />
            <mxPoint x="250" y="240" as="targetPoint" />
          </mxGeometry>
        </mxCell>
        <mxCell id="Es7GD8rCJSh4pXtkUtaP-36" value="" style="edgeStyle=entityRelationEdgeStyle;fontSize=12;endArrow=ERoneToMany;rounded=0;align=center;verticalAlign=middle;horizontal=1;fontStyle=0;textShadow=0;labelBorderColor=none;labelBackgroundColor=none;" edge="1" parent="1" source="Es7GD8rCJSh4pXtkUtaP-22" target="Es7GD8rCJSh4pXtkUtaP-2">
          <mxGeometry width="100" height="100" relative="1" as="geometry">
            <mxPoint x="280" y="200" as="sourcePoint" />
            <mxPoint x="-120" y="150" as="targetPoint" />
            <Array as="points">
              <mxPoint x="250" y="220" />
            </Array>
          </mxGeometry>
        </mxCell>
        <mxCell id="Es7GD8rCJSh4pXtkUtaP-64" value="" style="edgeStyle=entityRelationEdgeStyle;fontSize=12;endArrow=ERmany;startArrow=ERmany;rounded=0;exitX=1;exitY=0.5;exitDx=0;exitDy=0;align=center;verticalAlign=middle;horizontal=1;fontStyle=0;textShadow=0;labelBorderColor=none;labelBackgroundColor=none;" edge="1" parent="1" source="Es7GD8rCJSh4pXtkUtaP-54" target="WLiORzeEzc-y3uyr89sH-2">
          <mxGeometry width="100" height="100" relative="1" as="geometry">
            <mxPoint x="40" y="460" as="sourcePoint" />
            <mxPoint x="140" y="360" as="targetPoint" />
            <Array as="points">
              <mxPoint x="220" y="560" />
            </Array>
          </mxGeometry>
        </mxCell>
        <mxCell id="Es7GD8rCJSh4pXtkUtaP-65" value="" style="edgeStyle=entityRelationEdgeStyle;fontSize=12;endArrow=ERmany;startArrow=ERmany;rounded=0;exitX=1;exitY=0.5;exitDx=0;exitDy=0;align=center;verticalAlign=middle;horizontal=1;fontStyle=0;textShadow=0;labelBorderColor=none;labelBackgroundColor=none;" edge="1" parent="1" source="Es7GD8rCJSh4pXtkUtaP-38" target="Es7GD8rCJSh4pXtkUtaP-57">
          <mxGeometry width="100" height="100" relative="1" as="geometry">
            <mxPoint x="-300" y="630" as="sourcePoint" />
            <mxPoint x="-200" y="530" as="targetPoint" />
          </mxGeometry>
        </mxCell>
      </root>
    </mxGraphModel>
  </diagram>
  <diagram id="F0BhZ-FHGmdEfrJA1wki" name="Página-3">
    <mxGraphModel dx="1434" dy="787" grid="1" gridSize="10" guides="1" tooltips="1" connect="1" arrows="1" fold="1" page="1" pageScale="1" pageWidth="827" pageHeight="1169" math="0" shadow="0">
      <root>
        <mxCell id="0" />
        <mxCell id="1" parent="0" />
        <mxCell id="t8g8ZUmgJU5KX8pgV5Y2-1" value="" style="shape=tableRow;horizontal=0;startSize=0;swimlaneHead=0;swimlaneBody=0;fillColor=none;collapsible=0;dropTarget=0;points=[[0,0.5],[1,0.5]];portConstraint=eastwest;top=0;left=0;right=0;bottom=1;labelBackgroundColor=none;rounded=1;" vertex="1" parent="1">
          <mxGeometry x="40" y="350" width="180" height="30" as="geometry" />
        </mxCell>
        <mxCell id="t8g8ZUmgJU5KX8pgV5Y2-2" value="PK" style="shape=partialRectangle;connectable=0;fillColor=none;top=0;left=0;bottom=0;right=0;fontStyle=1;overflow=hidden;whiteSpace=wrap;html=1;labelBackgroundColor=none;rounded=1;" vertex="1" parent="t8g8ZUmgJU5KX8pgV5Y2-1">
          <mxGeometry width="30" height="30" as="geometry">
            <mxRectangle width="30" height="30" as="alternateBounds" />
          </mxGeometry>
        </mxCell>
        <mxCell id="t8g8ZUmgJU5KX8pgV5Y2-3" value="ID" style="shape=partialRectangle;connectable=0;fillColor=none;top=0;left=0;bottom=0;right=0;align=center;spacingLeft=6;fontStyle=5;overflow=hidden;whiteSpace=wrap;html=1;labelBackgroundColor=none;rounded=1;" vertex="1" parent="t8g8ZUmgJU5KX8pgV5Y2-1">
          <mxGeometry x="30" width="150" height="30" as="geometry">
            <mxRectangle width="150" height="30" as="alternateBounds" />
          </mxGeometry>
        </mxCell>
        <mxCell id="t8g8ZUmgJU5KX8pgV5Y2-4" value="" style="shape=tableRow;horizontal=0;startSize=0;swimlaneHead=0;swimlaneBody=0;fillColor=none;collapsible=0;dropTarget=0;points=[[0,0.5],[1,0.5]];portConstraint=eastwest;top=0;left=0;right=0;bottom=0;labelBackgroundColor=none;rounded=1;" vertex="1" parent="1">
          <mxGeometry x="40" y="380" width="180" height="30" as="geometry" />
        </mxCell>
        <mxCell id="t8g8ZUmgJU5KX8pgV5Y2-5" value="" style="shape=partialRectangle;connectable=0;fillColor=none;top=0;left=0;bottom=0;right=0;editable=1;overflow=hidden;whiteSpace=wrap;html=1;labelBackgroundColor=none;rounded=1;" vertex="1" parent="t8g8ZUmgJU5KX8pgV5Y2-4">
          <mxGeometry width="30" height="30" as="geometry">
            <mxRectangle width="30" height="30" as="alternateBounds" />
          </mxGeometry>
        </mxCell>
        <mxCell id="t8g8ZUmgJU5KX8pgV5Y2-6" value="1" style="shape=partialRectangle;connectable=0;fillColor=none;top=0;left=0;bottom=0;right=0;align=center;spacingLeft=6;overflow=hidden;whiteSpace=wrap;html=1;labelBackgroundColor=none;rounded=1;" vertex="1" parent="t8g8ZUmgJU5KX8pgV5Y2-4">
          <mxGeometry x="30" width="150" height="30" as="geometry">
            <mxRectangle width="150" height="30" as="alternateBounds" />
          </mxGeometry>
        </mxCell>
        <mxCell id="t8g8ZUmgJU5KX8pgV5Y2-7" value="" style="shape=tableRow;horizontal=0;startSize=0;swimlaneHead=0;swimlaneBody=0;fillColor=none;collapsible=0;dropTarget=0;points=[[0,0.5],[1,0.5]];portConstraint=eastwest;top=0;left=0;right=0;bottom=0;labelBackgroundColor=none;rounded=1;" vertex="1" parent="1">
          <mxGeometry x="40" y="410" width="180" height="30" as="geometry" />
        </mxCell>
        <mxCell id="t8g8ZUmgJU5KX8pgV5Y2-8" value="" style="shape=partialRectangle;connectable=0;fillColor=none;top=0;left=0;bottom=0;right=0;editable=1;overflow=hidden;whiteSpace=wrap;html=1;labelBackgroundColor=none;rounded=1;" vertex="1" parent="t8g8ZUmgJU5KX8pgV5Y2-7">
          <mxGeometry width="30" height="30" as="geometry">
            <mxRectangle width="30" height="30" as="alternateBounds" />
          </mxGeometry>
        </mxCell>
        <mxCell id="t8g8ZUmgJU5KX8pgV5Y2-9" value="2" style="shape=partialRectangle;connectable=0;fillColor=none;top=0;left=0;bottom=0;right=0;align=center;spacingLeft=6;overflow=hidden;whiteSpace=wrap;html=1;labelBackgroundColor=none;rounded=1;" vertex="1" parent="t8g8ZUmgJU5KX8pgV5Y2-7">
          <mxGeometry x="30" width="150" height="30" as="geometry">
            <mxRectangle width="150" height="30" as="alternateBounds" />
          </mxGeometry>
        </mxCell>
        <mxCell id="t8g8ZUmgJU5KX8pgV5Y2-10" value="" style="shape=tableRow;horizontal=0;startSize=0;swimlaneHead=0;swimlaneBody=0;fillColor=none;collapsible=0;dropTarget=0;points=[[0,0.5],[1,0.5]];portConstraint=eastwest;top=0;left=0;right=0;bottom=0;labelBackgroundColor=none;rounded=1;" vertex="1" parent="1">
          <mxGeometry x="40" y="440" width="180" height="30" as="geometry" />
        </mxCell>
        <mxCell id="t8g8ZUmgJU5KX8pgV5Y2-11" value="" style="shape=partialRectangle;connectable=0;fillColor=none;top=0;left=0;bottom=0;right=0;editable=1;overflow=hidden;whiteSpace=wrap;html=1;labelBackgroundColor=none;rounded=1;" vertex="1" parent="t8g8ZUmgJU5KX8pgV5Y2-10">
          <mxGeometry width="30" height="30" as="geometry">
            <mxRectangle width="30" height="30" as="alternateBounds" />
          </mxGeometry>
        </mxCell>
        <mxCell id="t8g8ZUmgJU5KX8pgV5Y2-12" value="3" style="shape=partialRectangle;connectable=0;fillColor=none;top=0;left=0;bottom=0;right=0;align=center;spacingLeft=6;overflow=hidden;whiteSpace=wrap;html=1;labelBackgroundColor=none;rounded=1;" vertex="1" parent="t8g8ZUmgJU5KX8pgV5Y2-10">
          <mxGeometry x="30" width="150" height="30" as="geometry">
            <mxRectangle width="150" height="30" as="alternateBounds" />
          </mxGeometry>
        </mxCell>
        <mxCell id="t8g8ZUmgJU5KX8pgV5Y2-13" value="NOME" style="swimlane;fontStyle=0;childLayout=stackLayout;horizontal=1;startSize=30;horizontalStack=0;resizeParent=1;resizeParentMax=0;resizeLast=0;collapsible=1;marginBottom=0;align=center;fontSize=14;labelBackgroundColor=none;rounded=1;" vertex="1" parent="1">
          <mxGeometry x="220" y="350" width="140" height="120" as="geometry" />
        </mxCell>
        <mxCell id="t8g8ZUmgJU5KX8pgV5Y2-14" value="CHAPOLIN" style="text;strokeColor=none;fillColor=none;spacingLeft=4;spacingRight=4;overflow=hidden;rotatable=0;points=[[0,0.5],[1,0.5]];portConstraint=eastwest;fontSize=12;whiteSpace=wrap;html=1;align=center;labelBackgroundColor=none;rounded=1;" vertex="1" parent="t8g8ZUmgJU5KX8pgV5Y2-13">
          <mxGeometry y="30" width="140" height="30" as="geometry" />
        </mxCell>
        <mxCell id="t8g8ZUmgJU5KX8pgV5Y2-15" value="CIRILO" style="text;strokeColor=none;fillColor=none;spacingLeft=4;spacingRight=4;overflow=hidden;rotatable=0;points=[[0,0.5],[1,0.5]];portConstraint=eastwest;fontSize=12;whiteSpace=wrap;html=1;align=center;labelBackgroundColor=none;rounded=1;" vertex="1" parent="t8g8ZUmgJU5KX8pgV5Y2-13">
          <mxGeometry y="60" width="140" height="30" as="geometry" />
        </mxCell>
        <mxCell id="t8g8ZUmgJU5KX8pgV5Y2-16" value="PAULA TEJANO" style="text;strokeColor=none;fillColor=none;spacingLeft=4;spacingRight=4;overflow=hidden;rotatable=0;points=[[0,0.5],[1,0.5]];portConstraint=eastwest;fontSize=12;whiteSpace=wrap;html=1;align=center;labelBackgroundColor=none;rounded=1;" vertex="1" parent="t8g8ZUmgJU5KX8pgV5Y2-13">
          <mxGeometry y="90" width="140" height="30" as="geometry" />
        </mxCell>
        <mxCell id="t8g8ZUmgJU5KX8pgV5Y2-17" value="IDADE" style="swimlane;fontStyle=0;childLayout=stackLayout;horizontal=1;startSize=30;horizontalStack=0;resizeParent=1;resizeParentMax=0;resizeLast=0;collapsible=1;marginBottom=0;align=center;fontSize=14;labelBackgroundColor=none;rounded=1;" vertex="1" parent="1">
          <mxGeometry x="500" y="350" width="140" height="120" as="geometry" />
        </mxCell>
        <mxCell id="t8g8ZUmgJU5KX8pgV5Y2-18" value="18" style="text;strokeColor=none;fillColor=none;spacingLeft=4;spacingRight=4;overflow=hidden;rotatable=0;points=[[0,0.5],[1,0.5]];portConstraint=eastwest;fontSize=12;whiteSpace=wrap;html=1;align=center;labelBackgroundColor=none;rounded=1;" vertex="1" parent="t8g8ZUmgJU5KX8pgV5Y2-17">
          <mxGeometry y="30" width="140" height="30" as="geometry" />
        </mxCell>
        <mxCell id="t8g8ZUmgJU5KX8pgV5Y2-19" value="22" style="text;strokeColor=none;fillColor=none;spacingLeft=4;spacingRight=4;overflow=hidden;rotatable=0;points=[[0,0.5],[1,0.5]];portConstraint=eastwest;fontSize=12;whiteSpace=wrap;html=1;align=center;labelBackgroundColor=none;rounded=1;" vertex="1" parent="t8g8ZUmgJU5KX8pgV5Y2-17">
          <mxGeometry y="60" width="140" height="30" as="geometry" />
        </mxCell>
        <mxCell id="t8g8ZUmgJU5KX8pgV5Y2-20" value="42" style="text;strokeColor=none;fillColor=none;spacingLeft=4;spacingRight=4;overflow=hidden;rotatable=0;points=[[0,0.5],[1,0.5]];portConstraint=eastwest;fontSize=12;whiteSpace=wrap;html=1;align=center;labelBackgroundColor=none;rounded=1;" vertex="1" parent="t8g8ZUmgJU5KX8pgV5Y2-17">
          <mxGeometry y="90" width="140" height="30" as="geometry" />
        </mxCell>
        <mxCell id="t8g8ZUmgJU5KX8pgV5Y2-21" value="EMAIL" style="swimlane;fontStyle=0;childLayout=stackLayout;horizontal=1;startSize=30;horizontalStack=0;resizeParent=1;resizeParentMax=0;resizeLast=0;collapsible=1;marginBottom=0;align=center;fontSize=14;labelBackgroundColor=none;rounded=1;" vertex="1" parent="1">
          <mxGeometry x="360" y="350" width="140" height="120" as="geometry" />
        </mxCell>
        <mxCell id="t8g8ZUmgJU5KX8pgV5Y2-22" value="chapolim@gmail.com" style="text;strokeColor=none;fillColor=none;spacingLeft=4;spacingRight=4;overflow=hidden;rotatable=0;points=[[0,0.5],[1,0.5]];portConstraint=eastwest;fontSize=12;whiteSpace=wrap;html=1;align=center;labelBackgroundColor=none;rounded=1;" vertex="1" parent="t8g8ZUmgJU5KX8pgV5Y2-21">
          <mxGeometry y="30" width="140" height="30" as="geometry" />
        </mxCell>
        <mxCell id="t8g8ZUmgJU5KX8pgV5Y2-23" value="cirilo@gmail.com" style="text;strokeColor=none;fillColor=none;spacingLeft=4;spacingRight=4;overflow=hidden;rotatable=0;points=[[0,0.5],[1,0.5]];portConstraint=eastwest;fontSize=12;whiteSpace=wrap;html=1;align=center;labelBackgroundColor=none;rounded=1;" vertex="1" parent="t8g8ZUmgJU5KX8pgV5Y2-21">
          <mxGeometry y="60" width="140" height="30" as="geometry" />
        </mxCell>
        <mxCell id="t8g8ZUmgJU5KX8pgV5Y2-24" value="paulatejano@gmail.com" style="text;strokeColor=none;fillColor=none;spacingLeft=4;spacingRight=4;overflow=hidden;rotatable=0;points=[[0,0.5],[1,0.5]];portConstraint=eastwest;fontSize=12;whiteSpace=wrap;html=1;align=center;labelBackgroundColor=none;rounded=1;" vertex="1" parent="t8g8ZUmgJU5KX8pgV5Y2-21">
          <mxGeometry y="90" width="140" height="30" as="geometry" />
        </mxCell>
      </root>
    </mxGraphModel>
  </diagram>
</mxfile>
